<?xml version="1.0" encoding="utf-8"?>
<!-- Generator: Adobe Illustrator 27.5.0, SVG Export Plug-In . SVG Version: 6.00 Build 0)  -->
<svg version="1.1" xmlns="http://www.w3.org/2000/svg" xmlns:xlink="http://www.w3.org/1999/xlink" x="0px" y="0px"
	 viewBox="0 0 500 500" style="enable-background:new 0 0 500 500;" xml:space="preserve">
<g id="BACKGROUND">
	<rect style="fill:#92D4FF;" width="500" height="500"/>
</g>
<g id="OBJECTS">
	<g>
		<g>
			<g>
				<path style="fill:#F5FCFF;" d="M115.073,246.312c0,0,0,6.763,10.145,10.99c10.145,4.227,22.826,0,22.826,0
					s0,13.526,13.526,17.753c13.526,4.227,18.599-4.227,18.599-4.227s0,7.609,15.217,13.526c15.217,5.918,32.125-1.691,32.125-1.691
					s4.417,29.63,37.198,28.743c38.486-1.041,43.961-29.589,43.961-29.589s5.918,4.227,25.362-1.691
					c19.444-5.918,22.826-27.898,22.826-27.898s21.98,1.691,19.444-12.681c-2.536-14.372-19.444-10.145-19.444-10.145
					s-6.763-25.362-35.507-32.971c-28.744-7.609-51.569,18.599-51.569,18.599s-0.845-14.372-20.29-21.135
					s-33.816,5.072-33.816,5.072s-5.54-17.963-25.362-16.908c-17.219,0.917-22.826,21.135-22.826,21.135s-5.918-4.227-20.29,0
					c-14.372,4.227-16.908,25.362-16.908,25.362s-6.917-9.783-21.135,0.845c0,0-20.961-9.697-21.66,7.776
					C86.854,253.208,115.073,246.312,115.073,246.312z"/>
				<path style="fill:#FFFFFF;" d="M373.938,233.769c-5.398-7.277-17.081-4.364-17.081-4.364s-6.763-25.362-35.507-32.971
					c-28.744-7.609-51.569,18.599-51.569,18.599s-0.845-14.372-20.29-21.135s-33.816,5.072-33.816,5.072s-5.54-17.963-25.362-16.908
					c-17.219,0.917-22.826,21.135-22.826,21.135s-5.918-4.227-20.29,0c-14.372,4.227-16.908,25.362-16.908,25.362
					s-6.917-9.783-21.135,0.845c0,0-15.967-7.384-20.493,2.358c2.865-1.205,7.726-2.502,12.742-0.45
					c7.854,3.213,7.854,3.213,7.854,3.213s5.712-7.854,13.209-5.712c7.497,2.142,11.066,5.355,11.066,5.355
					s5.223-14.325,16.064-18.92c14.731-6.245,24.632,1.071,24.632,1.071s1.518-11.724,15.44-15.651
					c13.922-3.927,22.043,7.084,22.043,7.084s7.977-5.224,22.97-3.082c14.993,2.142,22.01,20.575,22.01,20.575
					s7.497-6.783,16.778-4.998c9.282,1.785,13.566,4.998,13.566,4.998s6.318-15.952,23.335-16.24
					c21.062-0.357,25.572,15.883,25.572,15.883s6.069-2.499,11.781,1.428c5.712,3.927,8.568,10.71,8.568,10.71
					S364.449,231.449,373.938,233.769z"/>
				<path style="fill:#BDE7FF;" d="M376.326,239.742c-1.218,1.917-3.027,3.989-5.755,5.849c-7.854,5.355-16.778,2.142-16.778,2.142
					s-3.927,16.421-10.353,17.492c-6.426,1.071-16.421-1.785-16.421-1.785s-7.497,11.066-16.421,12.137
					c-4.424,0.531-8.055-0.605-10.596-1.886c5.063-3.023,7.208-10.29,7.208-10.29s5.958,3.896,13.062,0.688
					c7.104-3.208,4.812-12.145,4.812-12.145s-2.521,9.625-9.395,9.166c-6.875-0.458-10.312-5.27-10.312-5.27
					s-3.667,9.624-11.229,8.708c-7.562-0.917-10.77-9.854-10.77-9.854s-12.145,9.166-21.541,0.229c0,0,0.688,8.02,9.625,8.02
					c8.937,0,10.312-1.833,10.312-1.833s0.688,10.77,10.999,13.52c0.366,0.098,0.721,0.169,1.072,0.226
					c-3.766,6.073-12.632,16.784-27.156,13.93c-19.991-3.927-17.492-22.49-17.492-22.49s-8.925,8.925-18.563,9.996
					c-6.419,0.713-10.925-3-13.228-5.565c12.429-0.694,13.955-9.401,13.955-9.401s0.688,3.208,8.479,3.896
					c7.791,0.688,11.687-5.958,11.687-5.958s-10.083,6.645-20.624-1.833c0,0-5.041,7.562-14.895,7.562
					c-9.854,0-16.499-6.187-16.499-6.187s2.057,10.086,13.133,11.736c-4.27,2.737-12.302,6.921-18.777,4.679
					c-9.282-3.213-12.852-12.851-12.852-12.851s-5.355,2.499-17.135-0.714c-7.925-2.161-11.217-9.982-12.486-14.522
					c7.798,1.427,12.598-4.598,12.598-4.598c6.187,4.812,12.604-2.062,12.604-2.062s-1.833,2.062-5.958,1.375
					c-4.125-0.688-6.645-4.125-6.645-4.125s-2.75,5.729-12.145,5.5c-9.395-0.229-12.145-7.104-12.145-7.104s1.726,7.009,8.424,9.999
					c-3.52,2.929-10.219,7.572-17.088,7.327c-9.996-0.357-14.993-12.851-14.993-12.851s-2.499,3.927-13.922,4.641
					c-5.325,0.333-10.415-2.204-14.335-5.008c2.922,12.033,27.29,6.086,27.29,6.086s0,6.763,10.145,10.99
					c10.145,4.227,22.826,0,22.826,0s0,13.526,13.526,17.753c13.526,4.227,18.599-4.227,18.599-4.227s0,7.609,15.217,13.526
					c15.217,5.918,32.125-1.691,32.125-1.691s4.417,29.63,37.198,28.744c38.486-1.041,43.961-29.589,43.961-29.589
					s5.918,4.227,25.362-1.691c19.444-5.918,22.826-27.898,22.826-27.898S378.625,253.899,376.326,239.742z"/>
			</g>
			<g>
				<path style="fill:#F5FCFF;" d="M322.305,155.947c0,0-12.482-4.735-18.077,1.722c-5.595,6.456-1.722,17.647,5.165,20.23
					c6.887,2.582,11.621-2.152,11.621-2.152s6.456,23.242,28.407,23.673c20.874,0.409,29.699-12.052,29.699-12.052
					s8.551,11.415,24.103,10.33c18.508-1.291,24.103-13.773,24.103-13.773s17.647,6.026,24.964-3.443
					c5.224-6.76,5.595-8.178,5.595-8.178s14.634,1.722,15.495-5.595c0.861-7.317-13.773-9.039-13.773-9.039
					s-4.735-14.204-17.217-18.508c-12.482-4.304-19.799,2.583-19.799,2.583s-3.443-26.686-27.116-30.56
					c-23.673-3.874-35.724,15.495-35.724,15.495s-10.94-9.37-26.255-0.861C314.128,136.578,322.305,155.947,322.305,155.947z"/>
				<path style="fill:#BDE7FF;" d="M473.381,166.707c0.055-0.469,0.045-0.915-0.02-1.34c-1.179,1.087-2.929,2.173-5.56,2.925
					c-7.398,2.114-11.097-2.378-11.097-2.378s-3.699,8.719-13.739,11.89c-10.04,3.171-15.06-1.585-15.06-1.585
					c3.171-1.057,5.02-6.341,5.02-6.341c-8.719,5.549-19.024,3.699-19.024,3.699c3.171,2.378,8.455,2.378,8.455,2.378
					s-4.756,9.776-21.137,10.04c-16.382,0.264-17.703-5.813-17.703-5.813c9.248-1.585,14.004-8.191,14.004-8.191
					c12.682,2.114,14.268-6.605,14.268-6.605s-2.906,3.435-7.662,2.906c-4.756-0.529-7.662-3.435-7.662-3.435
					s-2.378,7.662-15.853,10.304c-13.475,2.642-24.836-5.02-24.836-5.02c4.492,7.662,13.739,8.719,13.739,8.719
					s-12.682,9.248-27.479,6.077c-14.796-3.171-17.438-16.646-17.438-16.646s-5.813,8.191-15.589,4.756
					c-6.929-2.435-6.557-9.909-5.753-14.058c-4.101,6.559-0.298,16.494,6.139,18.908c6.887,2.583,11.621-2.152,11.621-2.152
					s6.456,23.242,28.407,23.673c20.874,0.409,29.699-12.052,29.699-12.052s8.551,11.415,24.103,10.33
					c18.508-1.291,24.103-13.773,24.103-13.773s17.647,6.026,24.964-3.443c5.224-6.76,5.595-8.178,5.595-8.178
					S472.52,174.024,473.381,166.707z"/>
				<path style="fill:#FFFFFF;" d="M442.391,139.16c-12.482-4.304-19.799,2.583-19.799,2.583s-3.443-26.686-27.116-30.56
					c-23.673-3.874-35.725,15.495-35.725,15.495s-10.94-9.369-26.255-0.861c-19.369,10.76-11.191,30.129-11.191,30.129
					s4.668-17.511,16.558-21.474c11.89-3.963,21.402,1.585,21.402,1.585s-6.341,2.114-8.983,6.077c0,0,13.475-5.813,24.308-2.114
					c0,0-4.756-5.284-9.776-5.284c0,0,10.04-14.004,30.121-9.248c20.081,4.756,22.458,18.231,22.458,18.231
					s-10.04,0.264-13.475,7.134c0,0,14.268-6.605,27.214,1.585c0,0,0.528-4.756-5.813-6.87c0,0,15.847-7.508,33.288,12.099
					C459.608,157.668,454.873,143.464,442.391,139.16z"/>
			</g>
			<g>
				<path style="fill:#F5FCFF;" d="M347.674,85.406c0,0-7.837-3.359-12.035,2.239c-4.198,5.598-1.12,13.435,4.758,15.114
					c5.878,1.679,10.356-0.56,10.356-0.56s4.963,7.628,16.234,6.158c12.875-1.679,14.274-8.956,14.274-8.956
					s5.038,6.997,18.193,8.117c13.155,1.119,17.913-7.837,17.913-7.837s5.878,8.677,22.391,8.677s36.106-19.872,29.668-39.744
					c-6.438-19.872-26.03-20.712-26.03-20.712s-5.878-20.432-26.589-17.353c-19.95,2.966-21.831,20.712-21.831,20.712
					s-8.117-7.557-18.753-1.12c-9.102,5.509-4.198,16.234-4.198,16.234s-0.28-2.519-6.437-1.119
					c-6.158,1.399-5.318,7.277-5.318,7.277s-5.12-5.469-10.916-1.679C342.077,75.61,347.674,85.406,347.674,85.406z"/>
				<path style="fill:#BDE7FF;" d="M470.256,81.201c-5.07,8.456-13.831,17.395-29.099,19.039c-18.193,1.959-24.35-9.796-24.35-9.796
					c4.198-0.28,5.318-2.799,5.318-2.799c12.315,4.198,14.274-5.598,14.274-5.598s-1.4,4.478-7.277,3.639
					c-5.878-0.84-9.236-6.157-9.236-6.157s-0.28,5.878-8.397,7.557c-8.117,1.679-14.834-2.519-14.834-2.519
					c6.717,6.437,12.595,5.878,12.595,5.878s-2.799,5.038-13.715,6.437c-10.916,1.399-18.473-5.878-18.473-5.878
					s-3.079,5.598-10.076,8.117c-6.997,2.519-12.035-1.399-12.035-1.399c4.758-0.28,5.318-3.359,5.318-3.359
					c-8.956,3.079-14.834-3.079-14.834-3.079c0.28,4.478,3.359,5.878,3.359,5.878s-2.519,3.918-9.796,0.84
					c-3.993-1.689-4.866-4.895-4.842-7.445c-1.607,5.102,1.332,10.8,6.242,12.203c5.878,1.679,10.356-0.56,10.356-0.56
					s4.963,7.628,16.234,6.158c12.875-1.679,14.274-8.957,14.274-8.957s5.038,6.997,18.193,8.117
					c13.155,1.12,17.913-7.837,17.913-7.837s5.878,8.677,22.391,8.677C452.729,108.357,467.594,96.093,470.256,81.201z"/>
				<path style="fill:#FFFFFF;" d="M443.396,47.901c0,0-5.878-20.432-26.589-17.353c-19.95,2.965-21.831,20.712-21.831,20.712
					s-8.117-7.557-18.753-1.119c-8.033,4.862-5.158,13.782-4.372,15.811c-0.406-0.65-1.761-1.72-6.264-0.697
					c-6.158,1.399-5.318,7.277-5.318,7.277s-5.12-5.469-10.916-1.679c-6.2,4.054-3.056,11.76-1.989,13.954
					c-0.111-1.187-0.477-7.956,5.322-10.01c6.363-2.253,10.472,0,10.472,0s1.326-5.965,6.362-6.893
					c5.037-0.928,6.76,1.591,6.76,1.591s-0.265-10.207,6.495-12.99c6.76-2.784,13.123,1.326,13.123,1.326s-6.495,2.916-6.628,8.351
					c0,0,3.711-7.556,11.002-6.76c7.29,0.795,9.014,3.181,9.014,3.181s-2.518-4.904-7.29-5.7c0,0-0.265-7.821,5.302-11.797
					s11.002,3.049,11.002,3.049s-3.579,0.795-6.363,4.772c0,0,6.495-3.844,12.195-2.784c5.7,1.06,7.158,2.253,7.158,2.253
					s-2.784-3.844-6.893-4.507C424.398,47.888,432.437,41.685,443.396,47.901z"/>
			</g>
			<g>
				<path style="fill:#F5FCFF;" d="M50.924,410.936c0,0-14.835-5.934-20.769,1.187c-5.934,7.121,1.187,17.802,18.395,14.241
					c0,0,1.78,19.582,24.923,21.956c23.142,2.374,29.076-10.681,29.076-10.681s2.606,25.912,33.824,31.45
					c29.421,5.219,41.538-21.362,41.538-21.362s12.655,12.319,33.424,6.978c20.769-5.341,23.542-17.659,23.542-17.659
					s29.774,8.568,36.197-13.055c6.913-23.271-27.296-29.076-27.296-29.076s1.034-21.942-21.362-28.483
					c-16.4-4.79-26.703,11.868-26.703,11.868s-12.728-11.962-30.22-4.422c-15.111,6.513-15.471,18.663-15.471,18.663
					s-2.511-28.081-32.181-32.235c-29.67-4.154-37.246,20.961-37.246,20.961S52.111,378.299,50.924,410.936z"/>
				<path style="fill:#BDE7FF;" d="M270.018,426.664c-13.638,11.733-33.651,5.12-33.651,5.12c7.841-3.921,9.349-16.588,9.349-16.588
					s-4.524,9.349-16.286,12.064c-11.762,2.714-19.302-7.54-19.302-7.54c3.016,9.651,12.365,12.969,12.365,12.969
					s-10.254,11.762-25.032,13.27c-14.778,1.508-22.016-5.429-22.016-5.429c7.841-3.016,11.461-9.953,11.461-9.953
					c7.842-0.905,10.857-6.937,10.857-6.937c-15.683,6.333-25.635-0.905-25.635-0.905c2.413,4.222,9.651,6.937,9.651,6.937
					s-1.206,4.222-12.064,6.937c-10.857,2.714-20.81-3.318-20.81-3.318c5.73,7.54,16.889,9.651,16.889,9.651
					s-14.175,14.175-34.08,10.254c-19.905-3.921-23.524-22.016-23.524-22.016c7.54-1.508,13.874-9.048,13.874-9.048
					c-25.636,9.953-39.207-6.032-39.207-6.032c2.111,9.651,7.841,12.969,7.841,12.969s-8.143,9.651-22.921,6.333
					c-14.778-3.317-15.683-17.191-15.683-17.191s-6.937,6.333-16.286,3.317c-3.965-1.279-6.129-3.86-7.319-6.408
					c-2.17,6.719,5.15,14.329,20.063,11.243c0,0,1.78,19.582,24.923,21.956c23.142,2.374,29.076-10.681,29.076-10.681
					s2.606,25.912,33.824,31.45c29.421,5.219,41.538-21.362,41.538-21.362s12.655,12.319,33.424,6.978
					c20.769-5.341,23.542-17.659,23.542-17.659S261.979,444.791,270.018,426.664z"/>
				<path style="fill:#FFFFFF;" d="M243.778,394.914c0,0,1.034-21.942-21.362-28.483c-16.4-4.79-26.703,11.868-26.703,11.868
					s-12.728-11.962-30.22-4.422c-15.111,6.514-15.471,18.663-15.471,18.663s-2.511-28.081-32.181-32.235
					s-37.246,20.961-37.246,20.961s-20.325-2.115-27.351,16.903c3.162-3.162,10.19-9.406,16.663-9.707
					c8.684-0.404,13.328,3.231,13.328,3.231s4.847-15.954,26.859-15.954c22.012,0,26.858,25.849,26.858,25.849
					s7.876-7.27,17.367-5.049c9.491,2.221,11.309,5.049,11.309,5.049s-0.606-13.126,11.309-16.963
					c11.915-3.837,18.175,4.241,18.175,4.241s-6.664,1.818-9.693,9.289c0,0,13.328-9.491,25.041-3.231c0,0-4.847-5.856-9.693-6.058
					c0,0,5.251-13.126,17.973-12.117c12.723,1.01,20.8,22.012,20.8,22.012s10.359-0.704,20.913,2.223
					C252.655,396.429,243.778,394.914,243.778,394.914z"/>
			</g>
			<g>
				<path style="fill:#F5FCFF;" d="M214.703,63.177c0,0-3.092-0.476-4.35,3.278c-1.357,4.053,2.803,6.206,2.803,6.206
					s-0.696,7.645,8.408,10.01c9.194,2.389,12.212-5.405,12.212-5.405s2.938,4.766,10.183,4.464
					c8.563-0.357,9.436-5.064,9.436-5.064s0.917,10.442,12.328,11.843c11.411,1.401,15.699-9.241,15.699-9.241
					s14.746,4.246,16.416-5.005c1.398-7.746-4.805-8.608-4.805-8.608s2.659-9.97-6.736-15.322
					c-9.015-5.135-15.285,1.308-15.285,1.308s-1.588-13.114-19.085-14.152c-14.423-0.856-18.551,11.149-18.551,11.149
					s-4.204-3.203-9.409-0.2c-5.205,3.003-3.003,10.01-3.003,10.01S214.703,55.566,214.703,63.177z"/>
				<path style="fill:#BDE7FF;" d="M297.838,74.263c0.118-0.652,0.165-1.239,0.183-1.797c-0.93,1.375-3.321,3.799-8.87,4.388
					c-7.849,0.832-10.347-3.33-10.347-3.33s-4.4,8.563-12.963,7.374s-9.276-10.109-9.276-10.109c3.33-0.238,5.708-3.568,5.708-3.568
					c-7.968,3.449-13.558-0.595-13.558-0.595c1.665,3.925,4.4,3.806,4.4,3.806s-2.26,4.638-9.038,5.946s-9.157-2.616-9.157-2.616
					c3.568-1.546,4.519-5.708,4.519-5.708s-1.07,2.379-6.898,3.092c-5.827,0.713-6.66-2.973-6.66-2.973
					c0.119,4.4,2.854,5.471,2.854,5.471s-2.616,4.519-8.325,2.854c-5.708-1.665-4.4-7.611-4.4-7.611
					c-3.63,0.274-5.007-1.344-5.526-2.767c-0.044,0.112-0.091,0.216-0.132,0.337c-1.357,4.053,2.803,6.206,2.803,6.206
					s-0.696,7.645,8.408,10.01c9.194,2.389,12.212-5.405,12.212-5.405s2.938,4.766,10.183,4.464
					c8.563-0.357,9.436-5.064,9.436-5.064s0.917,10.442,12.328,11.843c11.411,1.401,15.7-9.241,15.7-9.241
					S296.168,83.513,297.838,74.263z"/>
				<path style="fill:#FFFFFF;" d="M292.555,57.528c-0.909-2.535-2.737-5.189-6.258-7.195c-9.015-5.135-15.285,1.308-15.285,1.308
					s-1.588-13.114-19.085-14.152c-14.423-0.856-18.551,11.149-18.551,11.149s-4.204-3.203-9.409-0.2
					c-2.152,1.242-3.028,3.166-3.327,4.998c1.092-1.186,3.487-3.07,7.305-2.396c5.442,0.96,7.523,3.201,7.523,3.201
					s-3.041,0.96-3.041,4.161c0,0,3.921-5.362,10.404-2.481c0,0-1.921-2.561-4.962-2.561c0,0,5.282-8.723,14.885-7.283
					c9.604,1.441,12.885,5.762,12.885,5.762s-4.242,0.48-6.082,3.681c0,0,8.803-4.322,16.566,1.681c0,0-0.4-3.121-2.081-4.242
					C274.041,52.961,284.824,48.727,292.555,57.528z"/>
			</g>
			<g>
				<path style="fill:#F5FCFF;" d="M199.909,130.272c0,0-13.314-7.262-19.365,2.824c-6.052,10.086,7.665,19.365,19.769,13.717
					c0,0,3.533,13.511,19.68,14.588c16.357,1.09,19.454-8.939,19.454-8.939s5.245,14.121,25.014,12.507
					c19.769-1.614,20.576-17.348,20.576-17.348s15.734,1.21,14.121-10.086c-1.614-11.297-14.121-9.279-14.121-9.279
					s-0.86-16.861-19.769-20.172c-22.001-3.853-28.645,11.7-28.645,11.7s-5.648-6.052-13.717-4.438
					c-8.069,1.614-8.876,7.666-8.876,7.666s-4.422-7.277-11.797-2.892C196.469,123.545,199.909,130.272,199.909,130.272z"/>
				<path style="fill:#BDE7FF;" d="M299.254,138.506c-2.112,2.315-5.949,4.76-12.896,5.447c-14.177,1.402-18.85-6.387-18.85-6.387
					c3.116,5.764,7.166,7.789,7.166,7.789s-5.608,12.307-17.136,11.217c-11.528-1.09-16.202-9.503-16.202-9.503
					c5.764-1.714,7.789-7.945,7.789-7.945s-1.87,2.337-10.282,3.739s-13.398-5.608-13.398-5.608
					c2.181,5.452,6.855,8.724,6.855,8.724s-4.985,6.387-17.448,4.829c-12.463-1.558-13.553-11.995-13.553-11.995
					s-2.648,7.01-13.865,4.829c-5.596-1.088-7.508-4.658-8.019-7.962c-2.557,8.992,9.839,16.294,20.898,11.134
					c0,0,3.533,13.511,19.68,14.588c16.357,1.09,19.454-8.939,19.454-8.939s5.245,14.121,25.014,12.507
					c19.769-1.614,20.576-17.348,20.576-17.348S299.848,148.758,299.254,138.506z"/>
				<path style="fill:#FFFFFF;" d="M265.047,113.516c12.29,2.079,17.045,6.82,18.697,9.167c-0.078-0.21-0.161-0.424-0.248-0.641
					c-0.609-1.171-1.432-2.733-2.327-4.369c-2.802-4.093-7.621-8.141-15.901-9.591c-22.001-3.853-28.645,11.7-28.645,11.7
					s-5.648-6.052-13.717-4.438c-8.069,1.614-8.876,7.665-8.876,7.665s-4.422-7.277-11.797-2.892
					c-3.23,1.921-3.569,4.877-3.243,7.105c0.713-1.328,2.554-3.977,6.016-4.271c5.759-0.49,8.455,5.759,8.455,5.759
					s3.676-9.313,12.743-8.7c6.376,0.431,8.455,4.289,8.455,4.289s-2.328,1.47-4.656,5.024c0,0,10.415-6.249,18.135-1.838
					c0,0-4.779-4.901-7.72-4.411C240.418,123.074,248.382,110.698,265.047,113.516z"/>
			</g>
			<g>
				<path style="fill:#F5FCFF;" d="M36.415,175.771c0,0-10.574-1.911-9.791,6.441c0.773,8.245,11.595,5.153,11.595,5.153
					s3.72,9.939,16.49,12.367c15.812,3.007,22.674-6.699,22.674-6.699s2.834,4.895,10.564,5.668
					c7.73,0.773,12.625-5.411,12.625-5.411s3.865,7.214,16.49,6.957c12.625-0.258,17.005-10.822,17.005-10.822
					s4.226,5.76,12.11,4.38c10.08-1.764,10.048-11.079,10.048-11.079s14.429,0,12.625-9.533c-1.804-9.533-13.14-4.38-13.14-4.38
					s1.019-12.954-13.913-17.778c-8.955-2.893-14.944,0.258-14.944,0.258s-4.638-26.281-31.434-27.569
					c-26.796-1.288-31.949,24.992-31.949,24.992s-7.73-3.865-14.171,2.061c-6.441,5.926-4.38,12.883-4.38,12.883
					S32.807,164.949,36.415,175.771z"/>
				<path style="fill:#BDE7FF;" d="M168.448,177.398c-7.84,4.691-12.979-1.087-12.979-1.087s-2.202,8.18-10.225,10.225
					c-8.023,2.045-10.54-6.45-10.54-6.45c3.618-5.349,1.888-11.012,1.888-11.012s0.157,4.719-6.764,9.124
					c-6.922,4.405-12.9,1.416-12.9,1.416c6.607,4.877,10.854,3.304,10.854,3.304s-1.416,7.394-11.484,9.281
					c-10.068,1.888-13.686-7.551-13.686-7.551s-2.832,7.236-11.012,8.023c-8.18,0.787-12.428-6.292-12.428-6.292
					c5.034-0.472,7.394-6.607,7.394-6.607c-13.843,6.45-21.552-2.989-21.552-2.989c2.202,8.023,7.236,9.439,7.236,9.439
					s-2.832,8.023-17.462,7.079c-14.63-0.944-16.046-12.428-16.046-12.428s-2.045,3.618-8.18,3.146
					c-2.045-0.157-3.257-1.23-3.979-2.581c0.002,0.248,0.015,0.505,0.04,0.774c0.773,8.245,11.595,5.153,11.595,5.153
					s3.72,9.939,16.49,12.367c15.812,3.007,22.674-6.699,22.674-6.699s2.834,4.895,10.564,5.668
					c7.73,0.773,12.625-5.411,12.625-5.411s3.865,7.214,16.49,6.957c12.625-0.258,17.005-10.822,17.005-10.822
					s4.226,5.76,12.11,4.38c10.08-1.764,10.048-11.079,10.048-11.079S166.001,182.722,168.448,177.398z"/>
				<path style="fill:#FFFFFF;" d="M154.764,162.83c-1.393-4.059-4.779-9.148-12.97-11.794c-8.955-2.893-14.944,0.258-14.944,0.258
					s-4.638-26.281-31.434-27.569c-26.796-1.288-31.949,24.992-31.949,24.992s-7.73-3.865-14.171,2.061
					c-2.502,2.302-3.713,4.755-4.268,6.9c2.163-2.453,5.603-5.5,9.445-5.594c6.45-0.157,11.484,3.461,11.484,3.461
					s4.877-15.102,18.563-17.776c13.686-2.674,19.035,10.54,19.035,10.54s-8.337,2.517-10.854,9.911c0,0,8.809-5.034,17.304-3.775
					c8.495,1.258,11.641,7.394,11.641,7.394s-0.944-7.866-6.607-10.225c0,0,9.911,0.944,13.844,9.281
					C128.883,160.894,143.593,156.044,154.764,162.83z"/>
			</g>
			<g>
				<path style="fill:#F5FCFF;" d="M340.713,429.078c0,0-7.798,0-7.26,5.916c0.538,5.916,7.529,3.227,7.529,3.227
					s0.202,10.305,9.949,12.638c8.69,2.08,12.638-5.647,12.638-5.647s-1.686,13.225,10.871,16.032
					c13.842,3.094,17.093-6.889,17.093-6.889s5.109,11.562,22.049,7.798s15.596-16.94,15.596-16.94s5.378,5.75,13.982,3.33
					c8.605-2.42,8.874-11.128,8.874-11.128s15.064,3.637,16.94-6.185c1.464-7.664-7.26-9.949-7.26-9.949s0.749-10.825-7.318-14.59
					c-8.067-3.764-13.118,0.07-13.118,0.07s-1.397-18.877-22.382-20.262c-16.134-1.065-21.179,9.238-21.179,9.238
					s-6.668-4.841-14.647,0.696c-8.25,5.724-6.326,15.438-6.326,15.438s-6.857-12.474-19.729-11.529
					C343.457,401.334,333.566,414.669,340.713,429.078z"/>
				<path style="fill:#BDE7FF;" d="M463.029,433.234c-8.631,3.094-13.353-1.466-13.353-1.466s-0.977,4.397-7.002,7.491
					c-6.025,3.094-11.562-1.466-11.562-1.466c3.094-2.28,4.234-7.002,4.234-7.002c-6.025,7.002-18.727,2.443-18.727,2.443
					c1.954,4.234,9.282,5.048,9.282,5.048s-0.651,10.259-12.865,13.353c-12.213,3.094-19.053-5.7-19.053-5.7
					c5.537-1.14,8.142-7.654,8.142-7.654c4.071-0.977,6.188-5.211,6.188-5.211c-7.002,5.048-14.819,0.163-14.819,0.163
					c1.466,2.931,5.211,4.234,5.211,4.234s-1.628,4.234-8.794,4.397c-7.165,0.163-11.073-5.7-11.073-5.7
					c1.466,6.514,9.119,9.934,9.119,9.934s-3.094,9.282-13.842,6.514c-10.748-2.768-8.957-14.493-8.957-14.493
					s-5.048,7.816-13.028,6.84c-7.979-0.977-9.608-11.074-9.608-11.074s-2.117,2.931-5.862,1.791
					c-1.557-0.474-2.263-2.048-2.565-3.722c-0.49,0.782-0.758,1.774-0.643,3.039c0.538,5.916,7.529,3.227,7.529,3.227
					s0.202,10.305,9.949,12.638c8.69,2.08,12.638-5.647,12.638-5.647s-1.686,13.225,10.871,16.032
					c13.842,3.094,17.094-6.889,17.094-6.889s5.109,11.562,22.049,7.798s15.596-16.94,15.596-16.94s5.378,5.75,13.982,3.33
					c8.605-2.42,8.874-11.128,8.874-11.128s15.064,3.637,16.94-6.185c0.044-0.229,0.077-0.452,0.103-0.671
					C467.692,431.348,465.749,432.258,463.029,433.234z"/>
				<path style="fill:#FFFFFF;" d="M453.583,407.993c2.189,0.625,3.913,1.503,5.155,2.284c-1.046-1.429-2.448-2.703-4.341-3.587
					c-8.067-3.765-13.118,0.07-13.118,0.07s-1.397-18.877-22.382-20.262c-16.134-1.065-21.179,9.238-21.179,9.238
					s-6.668-4.841-14.647,0.696c-8.25,5.724-6.326,15.438-6.326,15.438s-6.857-12.474-19.729-11.529
					c-9.733,0.714-17.575,7.787-18.582,17.051c2.66-4.173,7.887-10.061,15-10.375c11.073-0.488,19.053,13.516,19.053,13.516
					s3.094-4.885,7.979-5.211c4.885-0.326,9.608,3.094,9.608,3.094s-3.094-5.7-7.654-6.677c0,0,1.14-11.074,9.445-11.888
					c8.305-0.814,12.539,3.583,12.539,3.583s-5.048,1.954-6.188,6.514c0,0,5.211-6.839,13.842-5.374
					c8.631,1.466,11.399,3.583,11.399,3.583s-4.885-6.677-13.028-7.165c0,0,9.119-10.585,19.704-4.234
					c10.585,6.351,11.236,13.353,11.236,13.353S445.604,405.713,453.583,407.993z"/>
			</g>
			<g>
				<path style="fill:#F5FCFF;" d="M304.919,336.952c0,0-7.342-3.496-10.139,2.098c-2.797,5.594,3.496,9.44,8.391,8.391
					c0,0,2.098,9.09,13.285,10.139c11.188,1.049,16.082-5.594,16.082-5.594s1.889,6.843,17.83,8.041
					c13.757,1.034,23.774-7.691,23.774-7.691s5.728,7.612,21.811,7.612c16.082,0,24.339-10.758,24.339-10.758
					s12.237,8.74,33.563,1.049c21.326-7.691,24.473-42.303,6.643-55.938c-17.83-13.635-28.668-4.895-28.668-4.895
					s-11.425-27.1-39.157-20.627c-28.869,6.738-24.823,34.262-24.823,34.262s-9.93-5.577-18.529,1.049
					c-6.465,4.982-5.944,11.537-5.944,11.537s-10.488-5.244-18.879-1.398c-8.391,3.846-8.041,12.936-8.041,12.936
					s-4.454-3.872-9.196,0.343C302.946,331.342,304.919,336.952,304.919,336.952z"/>
				<path style="fill:#BDE7FF;" d="M441.012,344.586c-18.42-1.674-20.374-13.117-20.374-13.117s-7.256,19.815-22.885,20.094
					c-15.629,0.279-20.652-8.094-20.652-8.094c9.768-2.512,11.722-12.559,11.722-12.559s-3.07,5.023-15.071,6.977
					c-12.001,1.954-17.583-3.907-17.583-3.907c2.791,6.419,8.931,8.931,8.931,8.931s-1.396,5.303-14.513,7.814
					c-13.117,2.512-15.908-5.024-15.908-5.024c5.303-0.837,8.094-6.419,8.094-6.419c-14.792,6.14-21.769-1.116-21.769-1.116
					c0.558,5.023,6.419,7.535,6.419,7.535s-2.512,6.977-12.001,6.14c-9.489-0.837-11.722-10.047-11.722-10.047
					s-1.396,1.674-5.303,1.116c-1.677-0.24-2.94-1.715-3.839-3.319c-2.136,5.295,3.879,8.863,8.613,7.849
					c0,0,2.098,9.09,13.285,10.139c11.188,1.049,16.082-5.594,16.082-5.594s1.889,6.843,17.83,8.041
					c13.757,1.034,23.774-7.691,23.774-7.691s5.728,7.612,21.811,7.612c16.082,0,24.338-10.758,24.338-10.758
					s12.236,8.74,33.563,1.049c8.258-2.978,13.777-9.999,16.421-18.269C464.276,337.549,453.278,345.701,441.012,344.586z"/>
				<path style="fill:#FFFFFF;" d="M465.156,298.905c-1.353-1.707-2.9-3.262-4.658-4.606c-17.83-13.635-28.668-4.895-28.668-4.895
					s-11.425-27.099-39.157-20.627c-28.869,6.738-24.823,34.262-24.823,34.262s-9.93-5.577-18.53,1.049
					c-6.465,4.982-5.943,11.537-5.943,11.537s-10.489-5.244-18.879-1.398c-4.399,2.016-6.385,5.468-7.289,8.301
					c2.167-1.994,6.308-4.719,12.447-4.177c9.489,0.837,14.792,5.861,14.792,5.861s1.674-16.466,11.722-18.699
					c10.047-2.233,15.908,6.419,15.908,6.419s-5.303,3.349-5.582,8.652c0,0,13.117-13.396,27.909-5.303c0,0-8.373-7.256-16.466-6.14
					c0,0,4.186-29.583,25.118-27.351c20.932,2.233,24.839,13.954,24.839,13.954S441.628,285.676,465.156,298.905z"/>
			</g>
			<g>
				<path style="fill:#F5FCFF;" d="M399.097,234.435c0,0-6.999-2.264-7.616,3.705c-0.618,5.97,8.028,3.705,8.028,3.705
					s-1.208,10.204,10.087,12.557c9.881,2.059,13.586-8.646,13.586-8.646s1.441,2.882,5.97,3.294
					c4.529,0.412,5.146-3.294,5.146-3.294s3.626,9.409,13.586,7.617c10.293-1.853,10.704-10.293,10.704-10.293
					s8.44,2.47,10.91-3.499c2.47-5.97-3.294-8.44-3.294-8.44s4.117-9.263-3.911-15.439c-6.213-4.779-11.322-2.264-11.322-2.264
					s-5.764-15.851-23.673-10.91c-15.757,4.347-14.41,16.674-14.41,16.674s-7.555-3.352-12.351,2.882
					C396.421,227.436,399.097,234.435,399.097,234.435z"/>
				<path style="fill:#BDE7FF;" d="M469.498,239.581c0.365-0.882,0.533-1.678,0.584-2.41c-4.598,4.72-11.921,2.582-11.921,2.582
					c2.625-1.94,1.94-5.821,1.94-5.821s-1.027,2.397-4.68,3.538c-3.652,1.141-7.305-0.114-7.305-0.114
					c1.484,3.766,5.364,3.766,5.364,3.766s-0.913,6.506-8.218,7.076c-7.305,0.571-11.071-7.761-11.071-7.761
					c-4.337,6.62-9.473,2.625-9.473,2.625c4.451-1.027,5.25-6.62,5.25-6.62s-2.625,3.196-8.104,3.424
					c-5.478,0.228-7.191-2.397-7.191-2.397c0.571,4.109,4.109,5.935,4.109,5.935s-3.31,8.104-10.957,5.593
					c-7.647-2.511-4.565-11.071-4.565-11.071s-2.283,2.739-7.305,2.625c-2.67-0.061-3.849-1.572-4.374-2.975
					c-0.036,0.186-0.082,0.359-0.103,0.564c-0.618,5.97,8.028,3.705,8.028,3.705s-1.208,10.204,10.087,12.557
					c9.881,2.058,13.586-8.646,13.586-8.646s1.441,2.882,5.97,3.294c4.529,0.412,5.146-3.294,5.146-3.294s3.626,9.409,13.586,7.617
					c10.293-1.853,10.704-10.292,10.704-10.292S467.028,245.551,469.498,239.581z"/>
				<path style="fill:#FFFFFF;" d="M466.724,221.926c-0.643-2.127-1.958-4.322-4.431-6.224c-6.213-4.779-11.322-2.264-11.322-2.264
					s-5.764-15.85-23.673-10.91c-15.757,4.347-14.41,16.674-14.41,16.674s-7.555-3.352-12.351,2.882
					c-1.048,1.363-1.653,2.832-1.977,4.266c1.941-1.728,4.89-3.824,8.113-4.217c5.645-0.689,10.464,2.891,10.464,2.891
					s-2.203-7.573,1.928-12.254c4.131-4.681,10.602,0.413,10.602,0.413s-3.855,0.826-4.131,4.957c0,0,6.747-6.747,13.631-1.239
					c0,0-0.138-3.993-4.268-4.819c0,0,2.754-3.58,7.297-1.652c4.544,1.928,6.747,7.848,6.747,7.848s4.268-2.891,10.051-1.239
					C462.98,218.176,465.526,220.555,466.724,221.926z"/>
			</g>
			<g>
				<path style="fill:#F5FCFF;" d="M148.324,336.161c0,0-6.509-1.793-8.875,4.514c-1.883,5.022-0.277,8.944,4.568,11.366
					c4.845,2.422,11.036,0.269,11.036,0.269s-1.097,9.809,12.113,12.92c11.519,2.713,16.688-6.46,16.688-6.46
					s6.684,6.345,18.303,1.615c8.611-3.505,9.959-11.574,9.959-11.574s7.268,3.768,13.458,0c6.191-3.768,5.383-8.344,5.383-8.344
					s9.09,1.723,10.826-4.523c1.571-5.65-3.827-8.128-3.827-8.128s3.391-14.474-9.26-16.628
					c-12.651-2.153-15.453,9.618-15.453,9.618s-6.465-9.303-16.739-3.758c-5.978,3.227-5.922,7.806-5.922,7.806
					s-4.576-15.881-17.765-16.419c-13.189-0.538-13.458,12.382-13.458,12.382s-4.307-2.153-9.421,2.153
					C144.825,327.278,148.324,336.161,148.324,336.161z"/>
				<path style="fill:#BDE7FF;" d="M242.023,333.231c-0.72,1.445-2.03,3.087-4.496,4.133c-5.204,2.208-8.672-1.261-8.672-1.261
					s0,5.361-4.415,9.303c-4.415,3.942-10.88,0.158-10.88,0.158c4.731-2.996,4.573-7.253,4.573-7.253
					c-8.042,8.672-18.133,2.838-18.133,2.838c2.68,4.1,7.095,5.361,7.095,5.361s-1.577,9.146-10.407,10.407
					c-8.83,1.261-11.195-2.681-11.195-2.681c4.573-1.892,4.888-7.884,4.888-7.884s-1.419,3.311-8.042,3.784
					c-6.623,0.473-9.934-3.627-9.934-3.627c0.631,4.415,5.203,7.411,5.203,7.411s-2.05,5.519-12.299,3.942
					c-10.249-1.577-7.569-13.088-7.569-13.088s-3.311,6.15-11.826,4.573c-3.967-0.735-6.072-3.042-7.204-5.299
					c-0.186,3.417,1.61,6.144,5.307,7.993c4.845,2.422,11.036,0.269,11.036,0.269s-1.097,9.809,12.113,12.92
					c11.519,2.713,16.688-6.46,16.688-6.46s6.684,6.345,18.303,1.615c8.611-3.505,9.959-11.574,9.959-11.574s7.268,3.768,13.458,0
					c6.191-3.768,5.383-8.344,5.383-8.344s9.09,1.723,10.826-4.523C242.064,334.939,242.115,334.039,242.023,333.231z"/>
				<path style="fill:#FFFFFF;" d="M238.09,320.449c-0.704-3.927-2.992-8.17-9.394-9.26c-12.651-2.153-15.453,9.618-15.453,9.618
					s-6.465-9.303-16.739-3.758c-5.978,3.227-5.922,7.806-5.922,7.806s-4.576-15.881-17.765-16.419
					c-13.189-0.538-13.458,12.382-13.458,12.382s-4.307-2.153-9.421,2.153c-3.104,2.614-3.032,6.904-2.498,9.88
					c0.505-2.216,1.947-6.66,5.533-7.798c4.83-1.531,8.6,2.356,8.6,2.356s3.063-11.191,12.841-9.896
					c9.778,1.296,13.076,9.542,13.076,9.542s-4.83,1.414-5.183,6.951c0,0,3.652-3.652,8.364-3.534
					c4.712,0.118,8.364,2.003,8.364,2.003s-1.885-4.712-6.008-5.772c0,0,6.244-8.011,13.548-5.655
					c7.304,2.356,8.835,4.83,8.835,4.83s2.003-10.367,10.131-10.838C232.312,314.648,236.782,318.985,238.09,320.449z"/>
			</g>
			<g>
				<path style="fill:#F5FCFF;" d="M65.715,101.496c0,0-19.852,5.546-30.918-5.521c-11.963-11.963-6.229-32.497,4.969-38.096
					c12.146-6.073,19.692-1.656,19.692-1.656s1.147-17.449,18.036-22.453c19.876-5.889,26.87,6.993,26.87,6.993
					s9.938-12.146,26.502-7.73c16.563,4.417,16.932,23.557,16.932,23.557s14.723-2.945,23.189,4.417
					c8.466,7.361,5.889,18.772,5.889,18.772s8.466-2.576,12.146,5.153s-2.945,15.459-13.251,13.987c0,0-4.785,13.987-26.87,13.619
					c-22.085-0.368-23.189-19.14-23.189-19.14s-5.889,9.57-15.827,9.202c-9.938-0.368-13.619-9.938-13.619-9.938
					s2.553,11.465-9.386,15.643C72.156,113.459,65.715,101.496,65.715,101.496z"/>
				<path style="fill:#BDE7FF;" d="M188.926,93.552c-7.413,3.802-17.573,0.583-17.573,0.583c5.521-1.84,4.417-6.809,4.417-6.809
					s-0.92,3.313-6.441,4.049c-5.521,0.736-8.466-3.681-8.466-3.681c2.393,6.257,5.337,6.441,5.337,6.441
					s-2.576,11.595-19.14,10.306c-16.564-1.288-17.116-16.379-17.116-16.379c12.146-1.104,14.171-12.331,14.171-12.331
					s-3.681,5.521-13.987,6.073c-10.306,0.552-14.907-6.809-14.907-6.809c0.552,7.362,8.466,11.226,8.466,11.226
					s-2.76,7.73-13.803,8.466c-11.042,0.736-15.091-9.202-15.091-9.202s-2.208,13.435-14.171,14.723
					c-11.962,1.288-13.987-8.834-13.987-8.834c7.73-1.104,9.938-7.546,9.938-7.546s-4.601,3.865-12.515,2.945
					c-7.914-0.92-9.386-8.65-9.386-8.65c-0.92,8.282,4.417,11.042,4.417,11.042s-6.809,7.73-20.06,2.392
					c-6.822-2.748-9.532-10.025-10.495-16.547c-1.189,7.205,0.408,15.109,6.262,20.964c11.067,11.067,30.918,5.521,30.918,5.521
					s6.441,11.963,21.164,6.809c11.939-4.179,9.386-15.643,9.386-15.643s3.681,9.57,13.619,9.938
					c9.938,0.368,15.827-9.202,15.827-9.202s1.104,18.772,23.189,19.14c22.085,0.368,26.87-13.619,26.87-13.619
					C181.984,99.807,186.841,97.339,188.926,93.552z"/>
				<path style="fill:#FFFFFF;" d="M170.984,61.008c-8.466-7.362-23.189-4.417-23.189-4.417s-0.368-19.14-16.932-23.557
					c-16.563-4.417-26.502,7.73-26.502,7.73s-6.993-12.883-26.869-6.993c-16.888,5.004-18.036,22.453-18.036,22.453
					s-7.546-4.417-19.692,1.656c-1.796,0.898-3.431,2.213-4.896,3.783c4.059-1.458,10.256-3.218,14.704-2.35
					c7.16,1.397,12.4,7.51,12.575,6.462c0.175-1.048,1.048-22.879,17.115-25.324c16.067-2.445,19.735,8.208,19.735,8.208
					s-8.208,2.27-7.16,12.225c0,0,4.017-10.304,13.099-8.907c9.082,1.397,9.431,8.907,9.431,8.907s2.096-9.256-7.161-12.924
					c0,0,5.763-12.749,20.434-8.732c14.67,4.017,16.242,22.18,16.242,22.18s8.558-4.541,18.862-0.699
					c9.042,3.372,13.51,11.85,14.469,13.877C177.027,70.629,175.773,65.172,170.984,61.008z"/>
			</g>
			<g>
				<path style="fill:#F5FCFF;" d="M41.903,288.855c0,0-11.523,0.349-13.618,9.777c-2.095,9.428,7.333,11.872,7.333,11.872
					s-1.91,14.3,11.523,18.507c15.336,4.803,23.046-9.777,23.046-9.777s1.048,7.333,10.475,9.428
					c9.428,2.095,13.269-7.333,13.269-7.333s3.143,12.571,17.459,12.221s15.713-12.221,15.713-12.221s16.761,3.492,21.3-9.428
					c4.539-12.92-11.174-18.856-11.174-18.856s1.357-21.139-20.252-26.538c-18.334-4.58-27.934,13.967-27.934,13.967
					s-2.433-6.016-7.682-5.936c-6.503,0.098-8.031,7.333-8.031,7.333s-3.096-15.638-17.11-14.316
					C37.713,269.301,41.903,288.855,41.903,288.855z"/>
				<g>
					<path style="fill:#FFFFFF;" d="M42.247,305.256c0.012-0.018,0.018-0.028,0.018-0.028S42.251,305.25,42.247,305.256z"/>
					<path style="fill:#FFFFFF;" d="M56.277,304.54c0.005-0.139,0.001-0.264,0.008-0.405
						C56.286,304.135,56.265,304.286,56.277,304.54z"/>
					<path style="fill:#BDE7FF;" d="M148.195,312.429c-1.846,1.999-4.884,4.331-9.79,5.908c-10.197,3.277-13.656-4.552-13.656-4.552
						s-3.642,11.653-12.564,10.014c-8.922-1.639-8.558-10.925-8.558-10.925c10.197-1.092,12.564-10.379,12.564-10.379
						s-3.096,4.188-12.564,6.737c-9.468,2.549-14.02-0.728-14.02-0.728c2.367,2.913,8.194,4.006,8.194,4.006
						s-2.549,7.101-11.289,9.65c-8.74,2.549-11.289-6.009-11.289-6.009c7.283-2.731,8.194-10.379,8.194-10.379
						s-9.65,8.558-18.755,5.827c-7.512-2.253-8.328-5.863-8.384-7.06c-0.389,10.037,4.561,12.887,4.561,12.887
						s-8.376,7.648-16.569,2.367c-8.056-5.192-2.22-14.235-2.021-14.538c-0.173,0.255-1.729,2.102-8.54-1.303
						c-3.626-1.813-4.362-5.387-4.189-8.518c-0.536,0.93-0.965,1.987-1.234,3.198c-2.095,9.428,7.333,11.872,7.333,11.872
						s-1.91,14.3,11.523,18.507c15.336,4.803,23.046-9.777,23.046-9.777s1.048,7.333,10.476,9.428
						c9.428,2.095,13.269-7.333,13.269-7.333s3.143,12.571,17.459,12.221s15.713-12.221,15.713-12.221
						S143.384,324.711,148.195,312.429z"/>
				</g>
				<path style="fill:#FFFFFF;" d="M137.027,288.99c-0.798-6.413-4.4-18.573-20.05-22.482c-18.334-4.58-27.934,13.967-27.934,13.967
					s-2.433-6.016-7.682-5.936c-6.503,0.098-8.031,7.333-8.031,7.333s-3.096-15.638-17.11-14.316
					c-9.569,0.903-13.063,6.565-14.213,11.825c3.409-3.303,8.659-6.921,13.733-6.381c8.558,0.91,11.835,12.2,11.835,12.2
					s-6.373,0.182-7.101,9.832c0,0,3.642-6.555,9.286-6.555c5.645,0,10.015,4.734,10.015,4.006s-2.185-6.191-4.734-7.465
					c0,0,3.46-4.916,8.012-3.095c4.552,1.821,7.283,9.468,7.283,9.468s5.645-5.28,12.382-4.552c6.737,0.728,9.832,4.006,9.832,4.006
					s-5.462-11.107-16.569-9.832c0,0,4.006-10.379,18.026-8.558c14.02,1.821,13.838,18.572,13.838,18.572
					S131.65,287.507,137.027,288.99z"/>
			</g>
			<g>
				<path style="fill:#F5FCFF;" d="M332.58,398.99c0,0,12.996,0.351,13.347-8.43c0.351-8.781-9.483-8.781-9.483-8.781
					s-1.267-14.085-16.859-15.806c-15.962-1.761-20.021,12.293-20.021,12.293s-1.971-8.352-9.347-7.649
					c-7.376,0.703-8.566,7.298-8.566,7.298s-14.225-4.617-15.863,5.363c-1.375,8.376,8.487,9.389,8.487,9.389
					s-1.039,8.337,6.557,11.316c7.597,2.979,12.661-1.936,12.661-1.936s0.176,6.188,4.767,8.044c7.001,2.83,9.98-2.979,9.98-2.979
					s5.362,7.597,15.193,4.916C334.903,408.9,332.58,398.99,332.58,398.99z"/>
				<g>
					<path style="fill:#BCD1CA;" d="M286.423,390.065c-0.027-0.224-0.058-0.44-0.08-0.679
						C286.343,389.386,286.338,389.653,286.423,390.065z"/>
					<path style="fill:#BDE7FF;" d="M345.882,390.89c-3.879,0.374-6.064-3.887-6.064-3.887s2.234,7.299-8.937,9.235
						c-11.172,1.936-14.598-3.426-14.598-3.426c3.277,6.852,9.682,6.703,9.682,6.703s-1.34,8.789-9.086,8.193
						c-7.746-0.596-8.193-6.256-8.193-6.256s-1.49,4.32-7.746,4.171c-6.256-0.149-5.809-7.15-5.809-7.15
						c8.491-0.745,9.98-6.554,9.98-6.554s-4.32,4.171-11.618,3.128c-5.562-0.794-6.796-3.66-7.07-4.981
						c0.725,5.912,3.346,6.62,3.346,6.62s-2.532,4.766-9.533,2.085c-7.001-2.681-2.83-12.363-2.83-12.363s-2.532,2.234-8.341-0.149
						c-1.503-0.616-2.52-1.806-3.213-3.223c-0.017,0.087-0.049,0.155-0.064,0.244c-1.375,8.376,8.487,9.389,8.487,9.389
						s-1.039,8.337,6.557,11.316c7.597,2.979,12.661-1.936,12.661-1.936s0.176,6.188,4.767,8.044c7.001,2.83,9.98-2.979,9.98-2.979
						s5.363,7.597,15.194,4.915c11.47-3.128,9.146-13.038,9.146-13.038S345.206,399.314,345.882,390.89z"/>
				</g>
				<path style="fill:#FFFFFF;" d="M319.114,369.277c6.852-0.239,11.086,1.695,13.559,3.546c-2.455-3.161-6.475-6.119-13.089-6.849
					c-15.962-1.761-20.02,12.293-20.02,12.293s-1.971-8.352-9.347-7.649c-1.711,0.163-3.076,0.65-4.184,1.291
					c1.184,0.036,2.49,0.258,3.886,0.794c5.809,2.234,6.703,7.15,6.703,7.15s-5.958,0.596-6.852,5.809c0,0,9.086-7.001,20.109-0.298
					c0,0-0.894-4.915-7.15-5.809C302.728,379.555,306.303,369.724,319.114,369.277z"/>
			</g>
		</g>
	</g>
</g>
</svg>
